<!-- icon666.com - MILLIONS vector ICONS FREE --><svg version="1.1" id="Layer_1" xmlns="http://www.w3.org/2000/svg" xmlns:xlink="http://www.w3.org/1999/xlink" x="0px" y="0px" viewBox="0 0 512 512" style="enable-background:new 0 0 512 512;" xml:space="preserve"><g><g><g><path d="M443.536,141.584L312.208,4.912C309.2,1.776,305.024,0,300.672,0H80c-8.832,0-16,7.168-16,16v480c0,8.832,7.168,16,16,16 h352c8.832,0,16-7.168,16-16V152.672C448,148.544,446.4,144.56,443.536,141.584z M304,42.56L401.488,144H304V42.56z M416,480H96 V32h176v128c0,8.832,7.168,16,16,16h128V480z"></path><path d="M217.824,289.664l-6.752-0.064c-2.864-0.256-5.728,1.36-7.248,3.904c-1.408,2.368-2.448,4.096-3.184,5.232 l-21.968,31.632l-13.376-22.176l-8.08-14.432c-1.472-2.656-4.336-4.304-7.36-4.08l-3.152,0.064l-3.248-0.064 c-2.928-0.144-5.712,1.344-7.232,3.872c-1.52,2.512-1.536,5.664-0.032,8.192l28.704,48.544 c-18.64,27.536-30.208,44.336-35.328,51.296c-1.84,2.48-2.064,5.808-0.608,8.528c1.456,2.704,4.08,4.288,7.44,4.208l3.168-0.064 l3.184,0.064c2.912,0.272,5.568-1.264,7.12-3.68l27.296-40c5.888,9.632,10.224,16.816,13.008,21.568 c3.664,6.256,7.04,12.24,10.112,17.936c1.392,2.592,4.112,4.208,7.04,4.208c0.128,0,0.256,0,0.368,0l3.2-0.064l3.12,0.064 c3.024,0.304,5.712-1.344,7.232-3.872c1.52-2.528,1.52-5.664,0.016-8.208l-19.776-33.296c-4-6.672-7.552-12.704-10.656-18.08 l33.568-48.64c1.696-2.448,1.888-5.632,0.512-8.272C223.52,291.328,220.8,289.664,217.824,289.664z"></path><path d="M266.032,393.392l-6.128-0.032l3.488-95.376c0.096-2.24-0.768-4.416-2.352-6c-1.584-1.584-3.616-2.448-6.016-2.32 l-2.72,0.064l-2.672-0.064c-2.352-0.08-4.272,0.672-5.856,2.16c-1.584,1.488-2.48,3.536-2.528,5.712l-2.224,83.088l-1.456,25.232 c-0.128,2.208,0.656,4.352,2.176,5.968c1.52,1.6,3.616,2.496,5.808,2.496h0.016l27.664-0.08l24.896,0.08 c1.6-0.48,4.176-0.832,5.68-2.336c1.504-1.504,2.352-3.536,2.352-5.664c0-1.44,0.08-3.088,0.256-4.944 c0.208-2.336-0.624-4.64-2.272-6.32c-1.632-1.664-3.792-2.56-6.288-2.368c-3.568,0.256-7.216,0.432-10.96,0.528 C283.12,393.328,276.128,393.392,266.032,393.392z"></path><path d="M317.168,403.056c0,3.328,2.064,6.32,5.184,7.488c5.968,2.24,10.688,3.68,14.512,4.4 c3.728,0.704,7.568,1.056,11.504,1.056c6.464,0,12.448-1.216,17.776-3.616c5.84-2.608,10.336-6.576,13.408-11.808 c2.96-5.008,4.448-10.8,4.448-17.2c0-2.736-0.288-5.44-0.864-8.096c-0.576-2.624-1.488-5.2-2.688-7.632 c-1.168-2.368-2.64-4.688-4.512-7.088c-1.696-2.192-3.488-4.224-5.376-6.112l-8.56-8.544c-3.952-3.904-7.12-7.12-9.488-9.616 c-2.352-2.464-4.368-4.672-6.064-6.576c-1.456-1.648-2.624-3.152-3.488-4.496c-0.656-1.04-1.104-2-1.376-2.944 c-0.256-0.832-0.368-1.712-0.368-2.704c0-1.824,0.464-3.52,1.408-5.184c0.928-1.648,2.224-2.928,3.968-3.936 c2.912-1.664,8.24-1.952,14.08-0.848c2.528,0.464,5.68,1.408,9.472,2.768c2.656,0.944,5.616,0.432,7.776-1.344 c2.176-1.792,3.248-4.592,2.832-7.376c-0.32-2.064-0.512-3.968-0.544-5.68c-0.08-3.696-2.704-6.864-6.336-7.648 c-18.624-3.968-28.912-2.72-37.44,1.888c-5.424,2.912-9.6,6.96-12.4,12.032c-2.688,4.896-4.064,10.24-4.064,15.904 c0,2.336,0.208,4.608,0.64,6.768c0.432,2.24,1.04,4.288,1.84,6.256c0.752,1.776,1.824,3.824,3.328,6.112 c1.328,2,2.992,4.176,5.008,6.576c1.92,2.208,3.872,4.336,6.08,6.544l5.552,5.264c6.16,5.856,10.464,10.16,12.832,12.896 c2.304,2.672,4.048,4.864,5.264,6.544c0.864,1.216,1.456,2.304,1.776,3.28c0.32,0.944,0.464,1.984,0.464,3.056 c0,2.464-0.528,4.528-1.6,6.304c-1.024,1.664-2.4,2.864-4.32,3.744c-6.832,3.104-16.864,1.552-28.272-4.624 c-2.624-1.424-5.776-1.264-8.256,0.368c-2.464,1.648-3.824,4.528-3.52,7.488C317.04,399.12,317.168,401.232,317.168,403.056z"></path></g></g></g></svg>