<svg xmlns="http://www.w3.org/2000/svg" xml:space="preserve" width="120mm" height="28mm" version="1.0" shape-rendering="geometricPrecision" text-rendering="geometricPrecision" image-rendering="optimizeQuality" fill-rule="evenodd" clip-rule="evenodd"
viewBox="0 0 120000 28000">
 <g id="Layer_x0020_1">
  <path fill="#FFCC00" d="M8348.3 22881.8l5997.4 0 0 -15522.4c2173.5,0 6671.1,-658.7 8190.7,950.9 303.1,320.8 570.8,709.1 805.1,1166.1 132.1,523.1 190,1049 173.7,1578.2 -105.6,3435 -2768.8,3360.7 -5289,3360.7l0 705.7 4683.5 8112.3 2131.3 0 -4293.2 -7436.7c1298.2,-335.8 2320,-889.6 3063.1,-1661.3 233.6,-241.8 439.3,-506.1 617.8,-790.8 1021,-1630 960.4,-3168.6 79,-4872.2 -196.8,-380.8 -426.4,-726.8 -691.4,-1037.4 -1279.9,-1501.9 -3654.3,-1627.9 -6075.1,-1624.5 -1747.1,2.7 -3537.8,-15 -4868.8,-12.3l61.3 16025.8 -3174.8 0 0 -16227.4 -6350.2 0 0 -3174.8 23989 0 0 23989 -23989 0 0 -15875.3 -1411.3 0 0 17285.9 26810.9 0 0 -26810.9 -26810.9 0 0 6237.9 6350.2 0 0 15634.1 0.7 -0.6z"/>
  <path fill="black" fill-rule="nonzero" d="M43694.6 13651.9c0,958.7 -266.9,1769.9 -797.2,2440.6 -530.2,667.2 -1352,1162.3 -2465.1,1485.4l0 38.6 4126.1 5660.8 -3034 0 -3746.9 -5330.7 -1731.3 0 0 5330.7 -2528.4 0 0 -13758.6 4182.4 0c695.3,0 1337.9,38.6 1934.9,119.4 597,77.3 1106.2,196.7 1531.1,354.7 807.7,305.5 1432.7,765.5 1871.7,1369.5 438.9,607.5 656.7,1369.6 656.7,2289.6zm-6408.8 2187.8c575.9,0 1064.1,-24.6 1464.4,-77.3 400.3,-52.7 733.9,-129.9 1007.8,-231.8 505.7,-189.6 856.9,-453 1053.5,-786.6 193.1,-330.1 291.5,-712.8 291.5,-1144.8 0,-368.7 -77.3,-698.8 -231.8,-983.2 -154.5,-284.5 -414.4,-505.7 -783.1,-670.7 -238.8,-112.4 -540.8,-189.7 -902.5,-242.3 -361.7,-52.7 -811.2,-77.3 -1344.9,-77.3l-1794.5 0 0 4214 1239.6 0zm46556.8 7437.6l-2528.4 0 0 -11651.6 -4445.8 0 0 -2107 11409.3 0 0 2107 -4435.1 0 0 11651.6zm-34100.9 -1221.1c339.2,0 693.5,-32.6 1060.3,-100.5 369.3,-67.8 741.2,-165.8 1118.1,-291.4l0 1384.4c-223.7,98 -570.4,190.9 -1037.7,278.8 -464.8,88 -949.7,130.7 -1449.7,130.7 -505,0 -984.9,-65.3 -1439.7,-196 -452.2,-128.1 -849.2,-339.2 -1190.9,-628.1 -339.2,-288.9 -608,-665.8 -809,-1125.6 -198.5,-462.3 -299,-1020.1 -299,-1678.3 0,-648.2 93,-1213.6 281.4,-1701 185.9,-484.9 437.2,-886.9 751.3,-1206 314,-319.1 673.3,-557.7 1080.3,-718.5 404.5,-158.3 824.1,-238.7 1256.3,-238.7 452.2,0 869.3,67.8 1251.2,206 379.4,135.7 711,351.7 987.4,645.7 278.9,294 494.9,670.8 648.2,1133.1 155.8,464.8 233.7,1010.1 233.7,1643.2 -5.1,243.7 -12.6,452.2 -22.6,623.1l-4678.3 0c25.1,331.6 98,613 221.1,849.2 123.1,233.7 281.4,424.6 482.4,570.3 198.5,145.8 429.6,253.8 693.5,319.1 266.3,67.9 552.7,100.5 861.7,100.5zm-698.4 -4733.5c-221.1,0 -417.1,40.2 -590.5,120.6 -170.8,82.9 -319.1,191 -444.7,331.7 -125.6,140.7 -223.6,304 -296.5,489.9 -75.3,185.9 -123.1,384.4 -148.2,595.5l2803.9 0c0,-211.1 -27.6,-409.6 -85.4,-595.5 -55.3,-185.9 -138.2,-349.2 -248.7,-489.9 -110.6,-140.7 -248.8,-248.8 -412.1,-331.7 -165.8,-80.4 -356.7,-120.6 -577.8,-120.6zm7823.8 4748.6c170.9,0 334.2,-22.6 490,-65.3 153.2,-45.2 299,-105.5 437.1,-178.4 138.2,-75.4 258.8,-155.8 364.4,-243.7 105.5,-90.5 195.9,-175.9 268.8,-258.8l0 -3386.8c-206,-168.4 -437.2,-306.6 -690.9,-419.6 -256.3,-110.6 -527.7,-165.8 -811.6,-165.8 -180.9,0 -371.8,37.7 -570.3,110.5 -198.5,72.9 -379.4,198.5 -545.2,376.9 -163.3,175.9 -301.5,422.1 -412.1,736.1 -110.5,314.1 -165.8,716.1 -165.8,1201 0,718.6 138.2,1278.9 417.1,1680.9 276.4,404.5 683.4,608 1218.5,613zm-3444.6 -2218.5c0,-623.1 85.4,-1180.9 258.8,-1668.3 170.9,-487.4 407,-897 703.5,-1228.6 296.5,-331.7 638.2,-577.9 1020.1,-743.7 384.4,-163.3 781.4,-246.2 1193.4,-246.2 193.5,0 374.4,17.6 547.7,50.2 170.9,35.2 334.2,82.9 484.9,140.7 153.3,60.3 294,125.6 427.2,198.5 133.1,75.4 256.2,150.8 369.3,228.6l15.1 0c-5.1,-97.9 -10.1,-236.1 -12.6,-414.5 -2.5,-180.9 -2.5,-374.4 -2.5,-585.4l0 -2964.8 1748.7 0 0 8537.5c0,472.3 5,876.8 15.1,1216 10,336.7 20.1,640.7 30.1,904.5l-1580.4 0 -72.8 -761.3 -30.2 0c-103,123.1 -226.1,243.7 -371.8,361.8 -145.7,115.6 -304,218.6 -479.9,304 -173.4,85.5 -366.8,153.3 -575.4,203.5 -208.5,47.8 -434.6,72.9 -680.8,72.9 -389.5,0 -761.3,-67.8 -1118.1,-206 -354.3,-138.2 -673.3,-349.3 -957.2,-635.7 -281.4,-288.9 -507.6,-663.3 -678.4,-1128.1 -168.4,-462.3 -253.8,-1007.5 -253.8,-1635.6zm8813.8 -3705.9l1748.7 0 0 7130.4 -1748.7 0 0 -7130.4zm-45.2 -3527.6l1839.2 0 0 1884.4 -1839.2 0 0 -1884.4zm7959.6 9899.2l-30.2 0c-98,103 -213.6,208.6 -351.7,316.6 -138.2,108 -296.5,211.1 -472.4,306.5 -175.9,95.5 -371.8,170.9 -587.9,228.7 -216.1,57.7 -449.7,87.9 -701,87.9 -339.2,0 -655.8,-52.8 -949.7,-158.3 -296.5,-105.5 -547.7,-258.8 -758.8,-457.3 -211,-198.4 -376.9,-437.1 -497.5,-721 -120.6,-281.4 -180.9,-598 -180.9,-944.7 0,-384.4 70.4,-726.1 208.6,-1032.7 140.7,-304 336.7,-560.3 585.4,-771.3 251.2,-211 550.2,-371.8 899.5,-482.4 346.7,-110.5 733.6,-165.8 1155.7,-165.8 309,0 592.9,20.1 854.2,57.8 258.8,40.2 487.5,87.9 683.4,140.7l0 -286.5c0,-165.8 -27.6,-326.6 -85.4,-479.8 -55.3,-155.8 -145.7,-291.5 -271.3,-412.1 -125.7,-120.6 -289,-213.5 -490,-286.4 -201,-70.4 -447.2,-105.5 -736.1,-105.5 -351.8,0 -706,37.7 -1060.3,115.5 -351.7,77.9 -736.1,196 -1148.2,351.8l0 -1361.8c359.3,-155.8 738.7,-276.4 1140.7,-359.3 404.5,-85.4 824.1,-128.1 1266.3,-133.1 520,0 977.3,62.8 1366.8,190.9 389.4,128.2 718.5,304 979.8,527.6 263.8,223.7 462.3,487.5 593,791.5 128.1,304 193.4,635.6 193.4,992.4l0 2688.4c0,472.3 5.1,876.8 15.1,1216 10.1,336.7 20.1,638.2 30.2,904.5l-1575.4 0 -75.3 -758.8zm-143.3 -2281.3c-165.8,-40.2 -356.7,-75.4 -572.8,-108 -216.1,-32.7 -434.7,-47.8 -653.3,-47.8 -427.1,0 -763.7,85.4 -1010,253.8 -248.7,170.8 -371.8,429.6 -371.8,778.9 0,160.8 27.6,301.4 85.4,422 55.3,120.6 130.7,221.1 226.1,299 95.5,77.9 208.6,138.2 334.2,178.4 128.1,37.7 263.8,57.8 404.5,57.8 175.9,0 344.2,-22.6 500,-70.3 155.8,-45.3 301.5,-105.6 432.1,-175.9 133.2,-70.4 251.3,-150.8 356.8,-238.7 105.5,-90.5 196,-175.9 268.8,-258.8l0 -1090.4zm3763.7 3040.1l0 -10658 1748.7 0 0 10658 -1748.7 0zm19991.4 -5743.5l-145.7 0c-535.2,0 -1005,80.4 -1409.5,238.6 -407,158.3 -718.6,399.5 -939.7,726.2l0 4778.7 -1748.7 0 0 -7130.4 1447.2 0 160.8 989.9 30.2 0c206,-364.3 489.9,-648.2 849.2,-856.8 361.8,-208.5 793.9,-314 1301.4,-314 175.9,0 326.7,10 454.8,30.1l0 1537.7zm5241.1 4984.7l-30.2 0c-98,103 -213.6,208.6 -351.7,316.6 -138.2,108 -296.5,211.1 -472.4,306.5 -175.9,95.5 -371.8,170.9 -587.9,228.7 -216.1,57.7 -449.7,87.9 -701,87.9 -339.2,0 -655.8,-52.8 -949.7,-158.3 -296.5,-105.5 -547.7,-258.8 -758.8,-457.3 -211,-198.4 -376.9,-437.1 -497.5,-721 -120.6,-281.4 -180.9,-598 -180.9,-944.7 0,-384.4 70.4,-726.1 208.6,-1032.7 140.7,-304 336.7,-560.3 585.4,-771.3 251.2,-211 550.2,-371.8 899.5,-482.4 346.7,-110.5 733.6,-165.8 1155.7,-165.8 309,0 592.9,20.1 854.2,57.8 258.8,40.2 487.5,87.9 683.4,140.7l0 -286.5c0,-165.8 -27.6,-326.6 -85.4,-479.8 -55.3,-155.8 -145.7,-291.5 -271.3,-412.1 -125.7,-120.6 -289,-213.5 -490,-286.4 -201,-70.4 -447.2,-105.5 -736.1,-105.5 -351.8,0 -706,37.7 -1060.3,115.5 -351.7,77.9 -736.1,196 -1148.2,351.8l0 -1361.8c359.3,-155.8 738.7,-276.4 1140.7,-359.3 404.5,-85.4 824.1,-128.1 1266.3,-133.1 520,0 977.3,62.8 1366.8,190.9 389.4,128.2 718.5,304 979.8,527.6 263.8,223.7 462.3,487.5 593,791.5 128.1,304 193.4,635.6 193.4,992.4l0 2688.4c0,472.3 5.1,876.8 15.1,1216 10.1,336.7 20.1,638.2 30.2,904.5l-1575.4 0 -75.3 -758.8zm-143.3 -2281.3c-165.8,-40.2 -356.7,-75.4 -572.8,-108 -216.1,-32.7 -434.7,-47.8 -653.3,-47.8 -427.1,0 -763.7,85.4 -1010,253.8 -248.7,170.8 -371.8,429.6 -371.8,778.9 0,160.8 27.6,301.4 85.4,422 55.3,120.6 130.7,221.1 226.1,299 95.5,77.9 208.6,138.2 334.2,178.4 128.1,37.7 263.8,57.8 404.5,57.8 175.9,0 344.2,-22.6 500,-70.3 155.8,-45.3 301.5,-105.6 432.1,-175.9 133.2,-70.4 251.3,-150.8 356.8,-238.7 105.5,-90.5 196,-175.9 268.8,-258.8l0 -1090.4zm6771.1 1834.1c170.9,0 334.2,-22.6 490,-65.3 153.2,-45.2 299,-105.5 437.1,-178.4 138.2,-75.4 258.8,-155.8 364.4,-243.7 105.5,-90.5 195.9,-175.9 268.8,-258.8l0 -3386.8c-206,-168.4 -437.2,-306.6 -690.9,-419.6 -256.3,-110.6 -527.7,-165.8 -811.6,-165.8 -180.9,0 -371.8,37.7 -570.3,110.5 -198.5,72.9 -379.4,198.5 -545.2,376.9 -163.3,175.9 -301.5,422.1 -412.1,736.1 -110.5,314.1 -165.8,716.1 -165.8,1201 0,718.6 138.2,1278.9 417.1,1680.9 276.4,404.5 683.4,608 1218.5,613zm-3444.6 -2218.5c0,-623.1 85.4,-1180.9 258.8,-1668.3 170.9,-487.4 407,-897 703.5,-1228.6 296.5,-331.7 638.2,-577.9 1020.1,-743.7 384.4,-163.3 781.4,-246.2 1193.4,-246.2 193.5,0 374.4,17.6 547.7,50.2 170.9,35.2 334.2,82.9 484.9,140.7 153.3,60.3 294,125.6 427.2,198.5 133.1,75.4 256.2,150.8 369.3,228.6l15.1 0c-5.1,-97.9 -10.1,-236.1 -12.6,-414.5 -2.5,-180.9 -2.5,-374.4 -2.5,-585.4l0 -2964.8 1748.7 0 0 8537.5c0,472.3 5,876.8 15.1,1216 10,336.7 20.1,640.7 30.1,904.5l-1580.4 0 -72.8 -761.3 -30.2 0c-103,123.1 -226.1,243.7 -371.8,361.8 -145.7,115.6 -304,218.6 -479.9,304 -173.4,85.5 -366.8,153.3 -575.4,203.5 -208.5,47.8 -434.6,72.9 -680.8,72.9 -389.5,0 -761.3,-67.8 -1118.1,-206 -354.3,-138.2 -673.3,-349.3 -957.2,-635.7 -281.4,-288.9 -507.6,-663.3 -678.4,-1128.1 -168.4,-462.3 -253.8,-1007.5 -253.8,-1635.6zm12454.4 2203.4c339.2,0 693.5,-32.6 1060.3,-100.5 369.3,-67.8 741.2,-165.8 1118.1,-291.4l0 1384.4c-223.7,98 -570.4,190.9 -1037.7,278.8 -464.8,88 -949.7,130.7 -1449.7,130.7 -505,0 -984.9,-65.3 -1439.7,-196 -452.2,-128.1 -849.2,-339.2 -1190.9,-628.1 -339.2,-288.9 -608,-665.8 -809,-1125.6 -198.5,-462.3 -299,-1020.1 -299,-1678.3 0,-648.2 93,-1213.6 281.4,-1701 185.9,-484.9 437.2,-886.9 751.3,-1206 314,-319.1 673.3,-557.7 1080.3,-718.5 404.5,-158.3 824.1,-238.7 1256.3,-238.7 452.2,0 869.3,67.8 1251.2,206 379.4,135.7 711,351.7 987.4,645.7 278.9,294 494.9,670.8 648.2,1133.1 155.8,464.8 233.7,1010.1 233.7,1643.2 -5.1,243.7 -12.6,452.2 -22.6,623.1l-4678.3 0c25.1,331.6 98,613 221.1,849.2 123.1,233.7 281.4,424.6 482.4,570.3 198.5,145.8 429.6,253.8 693.5,319.1 266.3,67.9 552.7,100.5 861.7,100.5zm-698.4 -4733.5c-221.1,0 -417.1,40.2 -590.5,120.6 -170.8,82.9 -319.1,191 -444.7,331.7 -125.6,140.7 -223.6,304 -296.5,489.9 -75.3,185.9 -123.1,384.4 -148.2,595.5l2803.9 0c0,-211.1 -27.6,-409.6 -85.4,-595.5 -55.3,-185.9 -138.2,-349.2 -248.7,-489.9 -110.6,-140.7 -248.8,-248.8 -412.1,-331.7 -165.8,-80.4 -356.7,-120.6 -577.8,-120.6z"/>
 </g>
</svg>
